HIERARCHY
ROOT Hips
{
	OFFSET 0.00000 0.00000 0.00000
	CHANNELS 6 Xposition Yposition Zposition Zrotation Yrotation Xrotation 
	JOINT LHipJoint
	{
		OFFSET 0 0 0
		CHANNELS 3 Zrotation Yrotation Xrotation
		JOINT LeftUpLeg
		{
			OFFSET 1.75344 -1.53157 0.77399
			CHANNELS 3 Zrotation Yrotation Xrotation
			JOINT LeftLeg
			{
				OFFSET 2.25415 -6.19323 0.00000
				CHANNELS 3 Zrotation Yrotation Xrotation
				JOINT LeftFoot
				{
					OFFSET 2.30342 -6.32861 0.00000
					CHANNELS 3 Zrotation Yrotation Xrotation
					JOINT LeftToeBase
					{
						OFFSET 0.10958 -0.30108 1.49206
						CHANNELS 3 Zrotation Yrotation Xrotation
						End Site
						{
							OFFSET 0.00000 -0.00000 0.77783
						}
					}
				}
			}
		}
	}
	JOINT RHipJoint
	{
		OFFSET 0 0 0
		CHANNELS 3 Zrotation Yrotation Xrotation
		JOINT RightUpLeg
		{
			OFFSET -1.81912 -1.53156 0.77399
			CHANNELS 3 Zrotation Yrotation Xrotation
			JOINT RightLeg
			{
				OFFSET -2.22882 -6.12365 0.00000
				CHANNELS 3 Zrotation Yrotation Xrotation
				JOINT RightFoot
				{
					OFFSET -2.21943 -6.09785 0.00000
					CHANNELS 3 Zrotation Yrotation Xrotation
					JOINT RightToeBase
					{
						OFFSET -0.18931 -0.52012 1.59379
						CHANNELS 3 Zrotation Yrotation Xrotation
						End Site
						{
							OFFSET -0.00000 -0.00000 0.84686
						}
					}
				}
			}
		}
	}
	JOINT LowerBack
	{
		OFFSET 0 0 0
		CHANNELS 3 Zrotation Yrotation Xrotation
		JOINT Spine
		{
			OFFSET -0.00200 1.66634 -0.14248
			CHANNELS 3 Zrotation Yrotation Xrotation
			JOINT Spine1
			{
				OFFSET -0.00875 1.64542 0.09514
				CHANNELS 3 Zrotation Yrotation Xrotation
				JOINT Neck
				{
					OFFSET 0 0 0
					CHANNELS 3 Zrotation Yrotation Xrotation
					JOINT Neck1
					{
						OFFSET 0.02257 1.59605 0.00839
						CHANNELS 3 Zrotation Yrotation Xrotation
						JOINT Head
						{
							OFFSET -0.10214 1.57530 -0.23335
							CHANNELS 3 Zrotation Yrotation Xrotation
							End Site
							{
								OFFSET -0.03588 1.60717 -0.08062
							}
						}
					}
				}
				JOINT LeftShoulder
				{
					OFFSET 0 0 0
					CHANNELS 3 Zrotation Yrotation Xrotation
					JOINT LeftArm
					{
						OFFSET 2.54983 1.10186 0.40078
						CHANNELS 3 Zrotation Yrotation Xrotation
						JOINT LeftForeArm
						{
							OFFSET 4.28840 -0.00000 0.00000
							CHANNELS 3 Zrotation Yrotation Xrotation
							JOINT LeftHand
							{
								OFFSET 3.06552 -0.00000 -0.00000
								CHANNELS 3 Zrotation Yrotation Xrotation
								JOINT LeftFingerBase
								{
									OFFSET 0 0 0
									CHANNELS 3 Zrotation Yrotation Xrotation
									JOINT LeftHandIndex1
									{
										OFFSET 0.75304 -0.00000 0.00000
										CHANNELS 3 Zrotation Yrotation Xrotation
										End Site
										{
											OFFSET 0.60712 -0.00000 0.00000
										}
									}
								}
								JOINT LThumb
								{
									OFFSET 0 0 0
									CHANNELS 3 Zrotation Yrotation Xrotation
									End Site
									{
										OFFSET 0.61639 -0.00000 0.61639
									}
								}
							}
						}
					}
				}
				JOINT RightShoulder
				{
					OFFSET 0 0 0
					CHANNELS 3 Zrotation Yrotation Xrotation
					JOINT RightArm
					{
						OFFSET -2.60909 1.35448 0.21802
						CHANNELS 3 Zrotation Yrotation Xrotation
						JOINT RightForeArm
						{
							OFFSET -4.52172 -0.00000 -0.00000
							CHANNELS 3 Zrotation Yrotation Xrotation
							JOINT RightHand
							{
								OFFSET -2.89140 -0.00000 0.00000
								CHANNELS 3 Zrotation Yrotation Xrotation
								JOINT RightFingerBase
								{
									OFFSET 0 0 0
									CHANNELS 3 Zrotation Yrotation Xrotation
									JOINT RightHandIndex1
									{
										OFFSET -0.68054 -0.00000 0.00000
										CHANNELS 3 Zrotation Yrotation Xrotation
										End Site
										{
											OFFSET -0.54867 -0.00000 0.00000
										}
									}
								}
								JOINT RThumb
								{
									OFFSET 0 0 0
									CHANNELS 3 Zrotation Yrotation Xrotation
									End Site
									{
										OFFSET -0.55705 -0.00000 0.55705
									}
								}
							}
						}
					}
				}
			}
		}
	}
}
MOTION
Frames: 13
Frame Time: .0083333
7.7935 15.5038 -33.8052 204.7580 -85.4721 155.3010 0.0000 0.0000 0.0000 -22.5018 -24.8886 2.0054 2.7786 10.3276 30.0444 0.2849 -15.9625 -13.9767 0.9501 -6.2075 -17.3877 0.0000 0.0000 0.0000 17.1677 20.3376 2.1274 -2.1626 -9.1969 26.4131 -0.5692 2.1921 -13.6685 -2.2681 9.4035 -27.0658 -0.8656 -0.8498 5.6216 2.2299 -1.1395 -5.5737 3.0099 -0.4526 -8.9876 -1.6605 -1.1998 -7.9175 9.3703 -2.7266 10.8786 2.9924 -0.9219 4.7151 -0.0000 -0.0000 0.0000 -84.5105 4.9345 58.2759 23.5621 -34.6978 -7.4558 -0.0000 -0.0000 12.1298 6.2615 -34.4062 -3.5477 -7.1250 0.0000 -0.0000 -14.4608 -3.6265 15.8466 -0.0000 -0.0000 0.0000 76.6206 -17.5585 12.8193 -16.6889 26.4458 -3.9478 0.0000 0.0000 22.3428 -5.9811 -54.2414 4.8596 7.1250 -0.0000 -0.0000 73.7069 -73.8078 -56.9429
7.8170 15.5090 -33.8849 214.8980 -86.7819 145.2990 0.0000 0.0000 0.0000 -21.9122 -25.0146 1.2427 2.8380 10.4281 30.3746 0.1090 -17.0343 -13.0088 0.7410 -5.4991 -15.3379 0.0000 0.0000 0.0000 17.6448 19.9720 2.5866 -2.0841 -9.0390 25.9175 -0.5920 0.8473 -14.2687 -2.3336 9.5289 -27.4643 -0.9528 -0.7444 5.9036 2.1142 -1.0124 -5.6782 2.9294 -0.3830 -9.2771 -0.9075 -0.4502 -7.7243 8.6798 -1.6524 10.3642 2.7183 -0.4138 4.4528 -0.0000 0.0000 0.0000 -83.8949 5.1578 57.1197 23.3858 -34.5079 -7.3557 -0.0000 -0.0000 12.3517 5.9837 -33.5360 -3.3142 -7.1250 0.0000 -0.0000 -14.5651 -2.7540 15.7563 -0.0000 0.0000 0.0000 76.2257 -17.5224 13.2423 -16.8186 26.6180 -4.0057 0.0000 0.0000 22.6915 -6.5005 -54.5108 5.3005 7.1250 -0.0000 -0.0000 74.4332 -74.0564 -57.9163
7.8266 15.5118 -33.9557 234.8610 -87.7875 125.2760 0.0000 0.0000 0.0000 -21.5283 -24.9786 0.6969 2.9211 10.5662 30.8303 0.0436 -17.5254 -12.7302 0.9234 -6.1222 -17.1394 0.0000 0.0000 0.0000 18.1226 19.4665 3.2476 -2.0020 -8.8702 25.3902 -0.6165 -0.0937 -14.8719 -2.0461 8.9615 -25.6751 -0.8886 -0.6441 6.1726 2.0142 -0.8746 -5.6933 2.7745 -0.3194 -9.4634 -0.2499 0.3420 -7.3782 8.0556 -0.5089 9.6763 2.4783 0.1218 4.1256 0.0000 0.0000 0.0000 -83.2247 5.3615 55.9102 23.3977 -34.5208 -7.3624 -0.0000 -0.0000 12.0610 5.8373 -32.8510 -3.1742 -7.1250 0.0000 -0.0000 -14.6126 -2.0761 15.6428 0.0000 0.0000 0.0000 75.7359 -17.3172 12.9690 -16.9103 26.7393 -4.0469 0.0000 0.0000 22.4728 -5.8155 -54.2739 4.7267 7.1250 -0.0000 -0.0000 73.8810 -73.7550 -57.0462
7.8245 15.5138 -34.0250 259.5420 -88.1013 100.9060 0.0000 0.0000 0.0000 -21.0791 -25.4160 0.1277 3.0120 10.7144 31.3228 0.1054 -17.2624 -13.1247 1.2575 -7.1089 -20.0384 0.0000 0.0000 0.0000 18.4783 18.9997 3.3760 -1.9080 -8.6717 24.7735 -0.6305 -0.5624 -15.2153 -1.7249 8.2679 -23.5309 -0.7504 -0.4069 5.8854 1.9556 -0.5486 -5.7945 2.5848 -0.1740 -9.4227 0.4640 1.0957 -6.8537 7.0893 0.6271 8.6114 2.3442 0.6136 4.0564 -0.0000 0.0000 0.0000 -83.1317 5.3499 53.7013 22.8360 -33.9090 -7.0466 -0.0000 -0.0000 12.7376 5.7478 -32.3750 -3.0851 -7.1250 0.0000 -0.0000 -14.6410 -1.6065 15.5570 -0.0000 0.0000 0.0000 75.1983 -17.1878 12.9046 -16.9901 26.8447 -4.0829 0.0000 0.0000 22.2041 -6.3046 -54.3962 5.1331 7.1250 -0.0000 -0.0000 74.1109 -73.9603 -57.5004
7.8332 15.5248 -34.0931 292.8140 -87.7228 68.0185 0.0000 0.0000 0.0000 -20.3311 -26.1561 -0.6111 3.1036 10.8610 31.8124 -0.0119 -17.8149 -12.4141 0.8071 -5.7334 -16.0128 0.0000 0.0000 0.0000 18.9813 18.4554 3.3660 -1.8130 -8.4652 24.1363 -0.6412 -1.3192 -15.6605 -1.5199 7.7850 -22.0629 -0.3895 -0.3554 5.7894 1.9194 -0.4487 -5.9503 2.3310 -0.1514 -9.5440 1.4191 1.8768 -6.2316 6.1167 1.7590 7.7736 1.8650 1.1401 3.5982 -0.0000 0.0000 0.0000 -83.1424 5.4133 50.6751 22.2179 -33.2224 -6.7048 -0.0000 -0.0000 13.8688 5.6554 -32.0861 -3.0111 -7.1250 0.0000 -0.0000 -14.6802 -1.3176 15.5280 -0.0000 0.0000 0.0000 74.6088 -16.9518 13.2758 -17.0581 26.9343 -4.1136 0.0000 0.0000 21.9858 -7.4297 -54.7544 6.0790 7.1250 -0.0000 -0.0000 74.9712 -74.4451 -58.8736
7.8360 15.5306 -34.1637 308.5320 -87.0409 52.5081 0.0000 0.0000 0.0000 -19.6525 -26.6271 -1.1288 3.1890 10.9949 32.2628 -0.1582 -18.2930 -11.3753 0.2596 -3.2781 -9.0539 0.0000 0.0000 0.0000 19.6472 18.2800 3.6794 -1.7299 -8.2793 23.5656 -0.6472 -2.2542 -16.1784 -1.5651 7.8944 -22.3937 -0.1705 -0.2777 5.7345 1.9666 -0.3198 -6.0215 2.2410 -0.1023 -9.5961 2.3250 2.7532 -5.6901 5.1929 3.0151 6.8235 1.4220 1.7292 3.1508 -0.0000 0.0000 0.0000 -83.4480 5.5268 46.6628 21.7085 -32.6460 -6.4279 -0.0000 -0.0000 15.3637 5.5678 -32.6494 -3.0105 -7.1250 0.0000 -0.0000 -14.7519 -1.8514 15.7454 -0.0000 0.0000 0.0000 73.8138 -16.6352 13.9621 -17.0713 26.9516 -4.1196 0.0000 0.0000 21.9349 -8.0957 -54.8784 6.6363 7.1250 -0.0000 -0.0000 75.2119 -74.7125 -59.4083
7.8380 15.5306 -34.2328 322.2410 -86.4414 38.9315 0.0000 0.0000 0.0000 -19.4738 -26.9680 -1.5384 3.2589 11.1028 32.6275 -0.1872 -18.2968 -11.0933 0.2382 -3.1412 -8.6721 0.0000 0.0000 0.0000 19.9682 18.1723 4.1077 -1.6627 -8.1250 23.0945 -0.6333 -3.2995 -16.5915 -1.7614 8.3504 -23.7834 -0.2898 -0.1746 5.8123 1.9254 -0.1952 -6.1192 2.2498 -0.0333 -9.7555 3.1661 3.5961 -4.9985 4.2269 4.2223 6.1003 0.9805 2.2960 2.7893 -0.0000 -0.0000 0.0000 -83.6696 5.6722 42.9641 21.2096 -32.0722 -6.1609 -0.0000 -0.0000 16.5678 5.6753 -33.1763 -3.1127 -7.1250 0.0000 -0.0000 -14.7163 -2.3718 15.8358 -0.0000 -0.0000 0.0000 73.1653 -16.3196 13.7086 -17.0694 26.9491 -4.1187 0.0000 0.0000 22.7105 -7.3133 -54.6073 5.9727 7.1250 -0.0000 -0.0000 74.4878 -74.3733 -58.3317
7.8441 15.5347 -34.3009 333.3050 -85.7485 28.0135 0.0000 0.0000 0.0000 -19.2965 -26.7819 -2.2662 3.3109 11.1821 32.8966 -0.2287 -18.6211 -10.9513 0.3804 -3.9612 -10.9676 0.0000 0.0000 0.0000 20.1020 17.9717 4.4036 -1.6085 -7.9980 22.7079 -0.6055 -4.3543 -16.9286 -1.9118 8.6799 -24.7989 -0.2879 -0.0515 5.9034 1.6632 -0.0469 -6.1538 1.9489 0.0301 -9.8533 4.3692 4.4744 -4.7152 3.1282 5.4200 5.6459 0.4568 2.8735 2.6437 0.0000 0.0000 0.0000 -83.5364 5.8042 39.3931 21.1225 -31.9710 -6.1147 -0.0000 -0.0000 17.3430 5.6094 -32.8326 -3.0482 -7.1250 0.0000 -0.0000 -14.7369 -2.0328 15.7742 0.0000 0.0000 0.0000 72.8948 -15.8923 13.0224 -17.2334 27.1644 -4.1933 0.0000 0.0000 23.0684 -5.5447 -54.5691 4.5226 7.1250 -0.0000 -0.0000 74.9785 -73.7215 -58.0475
7.8533 15.5368 -34.3708 340.3230 -84.8895 21.2967 0.0000 0.0000 0.0000 -19.1885 -27.4801 -2.6787 3.3540 11.2472 33.1181 -0.1729 -18.1335 -11.1024 0.4769 -4.4288 -12.2863 0.0000 0.0000 0.0000 20.2098 17.5832 4.2795 -1.5720 -7.9110 22.4442 -0.5972 -5.0202 -17.2892 -1.8673 8.5841 -24.5028 -0.1623 0.0304 5.8622 1.4035 0.0554 -6.2316 1.5867 0.0606 -9.9166 5.3371 5.3203 -4.3087 2.1596 6.5929 5.0869 0.0129 3.4354 2.4628 0.0000 0.0000 0.0000 -82.7631 6.1423 37.7050 21.5060 -32.4142 -6.3190 -0.0000 -0.0000 15.7450 6.6820 -31.3223 -3.4852 -7.1250 0.0000 -0.0000 -14.0761 -0.6939 14.6941 0.0000 0.0000 0.0000 72.3139 -15.5801 13.9925 -17.4200 27.4081 -4.2789 0.0000 0.0000 21.5044 -3.5467 -55.0620 2.9087 7.1250 -0.0000 -0.0000 77.3311 -73.1020 -59.5776
7.8491 15.5334 -34.4321 342.1970 -84.1889 19.6087 0.0000 0.0000 0.0000 -18.8117 -27.4718 -3.0731 3.4026 11.3200 33.3667 -0.1518 -18.1317 -11.3092 0.6030 -4.9707 -13.8252 0.0000 0.0000 0.0000 20.5932 17.2405 4.3512 -1.5291 -7.8073 22.1304 -0.6278 -5.3689 -17.8795 -1.6684 8.1381 -23.1344 0.1203 0.2236 5.4822 1.3219 0.3355 -6.1493 1.2988 0.1721 -9.6035 6.1953 5.9936 -3.7957 0.9669 7.5645 4.4716 -0.4939 3.8905 2.2747 -0.0000 0.0000 0.0000 -82.5423 6.3401 35.0279 21.6971 -32.6330 -6.4218 -0.0000 -0.0000 15.2020 7.6417 -30.2896 -3.8714 -7.1250 0.0000 -0.0000 -13.4893 0.1972 13.8322 -0.0000 0.0000 0.0000 71.4986 -15.1958 15.1743 -17.4877 27.4962 -4.3101 0.0000 0.0000 19.6732 -3.4538 -55.3501 2.8424 7.1250 -0.0000 -0.0000 78.3010 -73.1209 -60.5387
7.8639 15.5284 -34.5088 346.3210 -83.2544 15.3662 0.0000 0.0000 0.0000 -18.5835 -27.2723 -3.4878 3.4585 11.4027 33.6503 -0.2487 -18.6977 -10.8176 0.5172 -4.6091 -12.7970 0.0000 0.0000 0.0000 21.0203 17.0691 4.8417 -1.4841 -7.6967 21.7966 -0.6201 -6.4527 -18.6087 -1.5121 7.7657 -22.0046 -0.3582 0.3249 5.7731 1.4158 0.4405 -5.9779 1.6516 0.2636 -9.5962 6.5632 6.7003 -3.1423 0.0440 8.6074 3.4344 -0.8458 4.3751 1.9121 -0.0000 -0.0000 0.0000 -82.6689 6.3021 31.9848 21.8329 -32.7877 -6.4951 -0.0000 -0.0000 14.8057 6.9608 -30.1427 -3.5083 -7.1250 0.0000 -0.0000 -13.8706 0.4179 14.1924 -0.0000 -0.0000 0.0000 70.7256 -14.5916 15.0393 -17.6320 27.6833 -4.3769 0.0000 0.0000 19.1100 -6.1335 -54.9713 5.0288 7.1250 -0.0000 -0.0000 76.1488 -74.0145 -59.5039
7.8675 15.5265 -34.5800 348.8010 -82.4727 12.6990 0.0000 0.0000 0.0000 -18.4930 -27.1476 -3.6208 3.5206 11.4936 33.9632 -0.2111 -18.3525 -10.9010 0.5611 -4.7980 -13.3334 0.0000 0.0000 0.0000 21.5146 16.9675 5.5321 -1.4265 -7.5523 21.3624 -0.5826 -7.5980 -19.1451 -1.3932 7.4676 -21.1083 -0.5908 0.4222 6.0257 1.3963 0.5538 -5.7818 1.7438 0.3364 -9.5370 6.9478 7.3823 -2.6127 -0.6722 9.5836 2.5006 -1.1360 4.8366 1.6119 0.0000 0.0000 0.0000 -82.3082 6.0989 29.5303 21.8767 -32.8374 -6.5189 -0.0000 -0.0000 13.5576 6.1738 -30.4438 -3.1372 -7.1250 0.0000 -0.0000 -14.3281 0.2131 14.7439 0.0000 0.0000 0.0000 70.1136 -13.9849 15.0169 -17.8295 27.9383 -4.4691 0.0000 0.0000 18.8691 -7.1442 -54.7796 5.8464 7.1250 -0.0000 -0.0000 75.1526 -74.3456 -58.9326
7.8750 15.5190 -34.6462 349.8120 -81.6681 11.5901 0.0000 0.0000 0.0000 -18.1733 -27.0796 -3.9052 3.5868 11.5892 34.2938 -0.2009 -18.1545 -10.8393 0.5513 -4.7564 -13.2149 0.0000 0.0000 0.0000 22.0160 16.6729 5.9692 -1.3697 -7.4067 20.9260 -0.5711 -8.3488 -19.6820 -1.2007 6.9524 -19.5745 -0.1912 0.5190 6.3067 1.1420 0.7109 -5.7087 1.2242 0.3773 -9.6189 7.6260 7.9793 -2.1492 -1.4268 10.4231 1.8451 -1.4875 5.2397 1.4425 -0.0000 -0.0000 0.0000 -81.5844 5.9753 27.5417 21.8037 -32.7545 -6.4793 -0.0000 -0.0000 12.0625 6.1221 -30.5409 -3.1198 -7.1250 0.0000 -0.0000 -14.3608 0.1248 14.8024 -0.0000 -0.0000 0.0000 69.7543 -13.6705 15.5996 -18.0995 28.2844 -4.5963 0.0000 0.0000 18.0642 -7.2695 -55.5409 6.0042 7.1250 -0.0000 -0.0000 77.8351 -74.5202 -61.7114
